<svg id="グループ_168" data-name="グループ 168" xmlns="http://www.w3.org/2000/svg" width="69.78" height="51.708" viewBox="0 0 69.78 51.708">
  <path id="パス_58" data-name="パス 58" d="M226.141,42.517a.7.7,0,0,1-.521-.234l-1.905-2.148a.7.7,0,1,1,1.042-.924l1.473,1.661,3.7-2.857a.7.7,0,1,1,.852,1.1l-4.21,3.256a.694.694,0,0,1-.426.146" transform="translate(-192.403 -32.594)" fill="#fff"/>
  <path id="パス_59" data-name="パス 59" d="M203.534,15.2a7.6,7.6,0,1,1,7.6-7.6,7.608,7.608,0,0,1-7.6,7.6m0-13.805A6.206,6.206,0,1,0,209.74,7.6a6.213,6.213,0,0,0-6.206-6.206" transform="translate(-168.644)" fill="#fff"/>
  <path id="パス_60" data-name="パス 60" d="M69.154,239.8H.627a.627.627,0,0,1-.537-.95l9.838-16.325a.626.626,0,0,1,.537-.3h5.567a.627.627,0,0,1,0,1.254H10.819L1.736,238.551H68.044L58.961,223.48H53.011a.627.627,0,0,1,0-1.254h6.3a.626.626,0,0,1,.537.3l9.838,16.325a.627.627,0,0,1-.537.95" transform="translate(0 -191.273)" fill="#fff"/>
  <path id="パス_61" data-name="パス 61" d="M69.153,363.487H.627a.627.627,0,1,1,0-1.254H69.153a.627.627,0,1,1,0,1.254" transform="translate(0 -311.779)" fill="#fff"/>
  <path id="パス_62" data-name="パス 62" d="M153.614,285.892h-1.084a2.4,2.4,0,0,1-2.4-2.4v-2.251a.627.627,0,1,1,1.254,0v2.251a1.147,1.147,0,0,0,1.146,1.146h1.084a1.149,1.149,0,0,0,1.147-1.147v-2.249a.627.627,0,1,1,1.254,0v2.249a2.4,2.4,0,0,1-2.4,2.4" transform="translate(-129.219 -241.529)" fill="#fff"/>
  <path id="パス_63" data-name="パス 63" d="M311.552,285.892h-1.086a2.4,2.4,0,0,1-2.4-2.4v-2.25a.627.627,0,1,1,1.254,0v2.25a1.147,1.147,0,0,0,1.146,1.146h1.086a1.147,1.147,0,0,0,1.146-1.146v-2.251a.627.627,0,1,1,1.254,0v2.251a2.4,2.4,0,0,1-2.4,2.4" transform="translate(-265.157 -241.529)" fill="#fff"/>
  <path id="パス_64" data-name="パス 64" d="M164.993,155.648H138.059a2.508,2.508,0,0,1-2.5-2.5v-6.709a2.509,2.509,0,0,1,2.165-2.482l3.618-7.524a3.206,3.206,0,0,1,2.868-1.818h14.643a3.206,3.206,0,0,1,2.868,1.818l3.609,7.509a.611.611,0,0,1,.131.036,2.509,2.509,0,0,1,2.041,2.462v6.709a2.507,2.507,0,0,1-2.5,2.5m-26.934-10.465a1.253,1.253,0,0,0-1.251,1.251v6.709a1.253,1.253,0,0,0,1.251,1.251h26.934a1.253,1.253,0,0,0,1.251-1.251v-6.709a1.253,1.253,0,0,0-1.251-1.251Zm1.062-1.254h24.81l-3.345-6.958a1.946,1.946,0,0,0-1.738-1.107H144.205a1.946,1.946,0,0,0-1.738,1.107Z" transform="translate(-116.673 -115.862)" fill="#fff"/>
  <path id="パス_65" data-name="パス 65" d="M139.594,174.052h-.9a1.573,1.573,0,0,1-1.571-1.571v-1.627a1.573,1.573,0,0,1,1.571-1.571h2.59a.627.627,0,0,1,0,1.254h-2.59a.318.318,0,0,0-.318.318v1.627a.318.318,0,0,0,.318.318h.9a.627.627,0,1,1,0,1.254" transform="translate(-118.024 -145.703)" fill="#fff"/>
  <path id="パス_66" data-name="パス 66" d="M332.166,174.052h-.9a.627.627,0,1,1,0-1.254h.9a.318.318,0,0,0,.318-.318v-1.627a.318.318,0,0,0-.318-.318h-2.59a.627.627,0,0,1,0-1.254h2.59a1.573,1.573,0,0,1,1.571,1.571v1.627a1.573,1.573,0,0,1-1.571,1.571" transform="translate(-283.131 -145.703)" fill="#fff"/>
  <path id="パス_67" data-name="パス 67" d="M172.425,238.618h-4.842a.627.627,0,0,1,0-1.254h4.842a.627.627,0,1,1,0,1.254" transform="translate(-143.701 -204.302)" fill="#fff"/>
  <path id="パス_68" data-name="パス 68" d="M296.288,238.618h-4.665a.627.627,0,1,1,0-1.254h4.665a.627.627,0,1,1,0,1.254" transform="translate(-250.464 -204.302)" fill="#fff"/>
  <path id="パス_69" data-name="パス 69" d="M.627,343.764A.627.627,0,0,1,0,343.138v-3.176a.627.627,0,1,1,1.254,0v3.176a.627.627,0,0,1-.627.627" transform="translate(0 -292.07)" fill="#fff"/>
  <path id="パス_70" data-name="パス 70" d="M492.611,343.764a.627.627,0,0,1-.627-.627v-3.176a.627.627,0,1,1,1.254,0v3.176a.627.627,0,0,1-.627.627" transform="translate(-423.457 -292.07)" fill="#fff"/>
</svg>
