<?xml version="1.0" encoding="UTF-8"?>
<svg id="_レイヤー_1" data-name="レイヤー_1" xmlns="http://www.w3.org/2000/svg" version="1.1" viewBox="0 0 72.6 51.7">
  <!-- Generator: Adobe Illustrator 29.1.0, SVG Export Plug-In . SVG Version: 2.1.0 Build 142)  -->
  <defs>
    <style>
      .st0 {
        fill: #fff;
      }
    </style>
  </defs>
  <path id="_パス_71" data-name="パス_71" class="st0" d="M46.2,19.2c-.1,0-.2,0-.3,0-.3-.2-6.9-4.3-6.9-11.9s3.2-7.2,7.2-7.2,7.2,3.2,7.2,7.2c0,7.8-6.6,11.8-6.9,12,0,0-.2,0-.3,0M46.2,1.3c-3.3,0-5.9,2.7-5.9,5.9,0,6,4.6,9.7,5.9,10.6,1.3-.9,5.9-4.5,5.9-10.6,0-3.3-2.7-5.9-5.9-5.9"/>
  <path id="_パス_72" data-name="パス_72" class="st0" d="M46.2,10.1c-1.8,0-3.2-1.4-3.2-3.2,0-1.8,1.4-3.2,3.2-3.2s3.2,1.4,3.2,3.2c0,1.8-1.4,3.2-3.2,3.2M46.2,4.9c-1.1,0-1.9.9-1.9,1.9,0,1.1.9,1.9,1.9,1.9,1.1,0,1.9-.9,1.9-1.9,0-1.1-.9-1.9-1.9-1.9"/>
  <path id="_パス_73" data-name="パス_73" class="st0" d="M61.2,51.7H11.4c-2.2,0-4-1.8-4-4V15.6c0-2.2,1.8-4,4-4h25.8c.4,0,.7.4.7.7s-.3.7-.7.7H11.4c-1.4,0-2.6,1.1-2.6,2.5v32.1c0,1.4,1.2,2.6,2.6,2.6h49.8c1.4,0,2.6-1.2,2.6-2.6V15.6c0-1.4-1.2-2.6-2.6-2.6h-7.1c-.4,0-.7-.3-.7-.7s.3-.7.7-.7h7.1c2.2,0,4,1.8,4,4v32.1c0,2.2-1.8,4-4,4"/>
  <path id="_パス_74" data-name="パス_74" class="st0" d="M12.1,45.2c-.4,0-.7-.3-.7-.7,0-.2.1-.5.3-.6L59.1,13.6c.3-.2.8-.1,1,.2.2.3.1.8-.2,1h0L12.5,45c-.1,0-.2.1-.4.1"/>
  <path id="_パス_75" data-name="パス_75" class="st0" d="M37.3,49.7c-.4,0-.7-.3-.7-.7,0-.2.1-.5.3-.6l11.4-7.3c.3-.2.8-.1,1,.2s.1.8-.2,1h0l-11.4,7.3c-.1,0-.2.1-.4.1"/>
  <path id="_パス_76" data-name="パス_76" class="st0" d="M60.8,48.2c-.2,0-.3,0-.5-.2l-19.9-17.2c-.3-.3-.3-.7,0-1,.3-.3.7-.3,1,0l19.9,17.2c.3.3.3.7,0,1-.1.2-.3.2-.5.2"/>
  <path id="_パス_77" data-name="パス_77" class="st0" d="M28.7,30.1c-.2,0-.3,0-.5-.2L11.7,15.7c-.3-.3-.3-.7,0-1,.3-.3.7-.3,1,0l16.5,14.2c.3.3.3.7,0,1-.1.2-.3.2-.5.2"/>
  <path id="_パス_78" data-name="パス_78" class="st0" d="M42.8,22.4c-.2,0-.3,0-.5-.2l-6.3-5.4c-.3-.3-.3-.7,0-1,.3-.3.7-.3,1,0l6.3,5.4c.3.3.3.7,0,1-.1.2-.3.2-.5.2"/>
</svg>