<?xml version="1.0" encoding="UTF-8"?>
<svg id="_レイヤー_1" data-name="レイヤー_1" xmlns="http://www.w3.org/2000/svg" version="1.1" viewBox="0 0 72.6 51.7">
  <!-- Generator: Adobe Illustrator 29.1.0, SVG Export Plug-In . SVG Version: 2.1.0 Build 142)  -->
  <defs>
    <style>
      .st0 {
        fill: #fff;
      }
    </style>
  </defs>
  <g id="_グループ_175" data-name="グループ_175">
    <path class="st0" d="M.8,47.3c-.4,0-.8-.3-.8-.8v-10.8c.1-2.9,2.6-5.2,5.5-5.1h12.9c2.9,0,5.3,2.2,5.4,5.1v1.6c0,.4-.3.8-.7.8s-.8-.3-.8-.8v-1.6c0-2-1.8-3.6-3.9-3.6H5.4c-2.1,0-3.9,1.5-3.9,3.6v10.8c0,.4-.3.8-.7.8Z"/>
    <path class="st0" d="M18.9,47.3c-.4,0-.8-.3-.8-.8v-4.4c0-.4.3-.8.8-.8s.8.3.8.8v4.4c0,.4-.3.8-.8.8Z"/>
    <path class="st0" d="M4.9,47.4c-.4,0-.8-.3-.8-.8v-4.5c0-.4.3-.8.8-.8s.8.3.8.8v4.5c0,.4-.3.8-.8.8Z"/>
    <path class="st0" d="M11.9,28.2c-3.2,0-5.9-2.9-5.9-6.5s2.6-6.5,5.9-6.5,5.9,2.9,5.9,6.5-2.6,6.5-5.9,6.5ZM11.9,16.6c-2.4,0-4.4,2.2-4.4,5s2,5,4.4,5,4.4-2.2,4.4-5-2-5-4.4-5Z"/>
    <path class="st0" d="M71.9,44.1c-.4,0-.8-.3-.8-.8v-7.6c0-2-1.9-3.6-3.9-3.6h-13c-2.1,0-3.9,1.5-3.9,3.6v2.5c0,.4-.3.8-.7.8s-.8-.3-.8-.8v-2.5c.1-2.9,2.6-5.2,5.5-5.1h12.9c2.8,0,5.3,2.2,5.4,5.1v7.6c0,.4-.3.8-.7.8Z"/>
    <path class="st0" d="M71.9,48c-.4,0-.8-.3-.8-.8v-4c0-.4.3-.8.8-.8s.8.3.8.8v4c0,.4-.3.8-.8.8Z"/>
    <path class="st0" d="M67.7,47.3c-.4,0-.8-.3-.8-.8v-4.4c0-.4.3-.8.8-.8s.8.3.8.8v4.4c0,.4-.3.8-.8.8Z"/>
    <path class="st0" d="M53.7,47.4c-.4,0-.8-.3-.8-.8v-4.5c0-.4.3-.8.8-.8s.8.3.8.8v4.5c0,.4-.3.8-.8.8Z"/>
    <path class="st0" d="M60.7,28.2c-3.2,0-5.9-2.9-5.9-6.5s2.6-6.5,5.9-6.5,5.9,2.9,5.9,6.5-2.6,6.5-5.9,6.5ZM60.7,16.6c-2.4,0-4.4,2.2-4.4,5s2,5,4.4,5,4.4-2.2,4.4-5-2-5-4.4-5Z"/>
    <path class="st0" d="M25.2,48.2c0,0-.1,0-.2,0-.4,0-.7-.5-.6-.9l2.5-11.5c.6-2.8,3-4.7,5.9-4.7h7c2.7,0,5.1,1.8,5.8,4.5l3.1,11.7c.1.4-.1.8-.5.9-.4.1-.8-.1-.9-.5l-3.1-11.7c-.5-2-2.3-3.3-4.4-3.3h-7c-2.1,0-3.9,1.5-4.4,3.5l-2.5,11.5c0,.3-.4.6-.7.6Z"/>
    <path class="st0" d="M43.3,48.2c-.3,0-.7-.2-.7-.6l-1.6-7.9c0-.4.2-.8.6-.9.4,0,.8.2.9.6l1.6,7.9c0,.4-.2.8-.6.9,0,0-.1,0-.2,0Z"/>
    <path class="st0" d="M29.6,48.2c0,0-.1,0-.2,0-.4,0-.7-.5-.6-.9l1.6-7.9c0-.4.5-.7.9-.6.4,0,.7.5.6.9l-1.6,7.9c0,.4-.4.6-.7.6Z"/>
    <path class="st0" d="M36.3,28.3c-3.2,0-5.9-3-5.9-6.6s2.6-6.6,5.9-6.6,5.9,3,5.9,6.6-2.6,6.6-5.9,6.6ZM36.3,16.6c-2.4,0-4.4,2.3-4.4,5.1s2,5.1,4.4,5.1,4.4-2.3,4.4-5.1-2-5.1-4.4-5.1Z"/>
    <path class="st0" d="M48.3,16.5c-3.2,0-5.9-2.9-5.9-6.5s2.6-6.5,5.9-6.5,5.9,2.9,5.9,6.5-2.6,6.5-5.9,6.5ZM48.3,5c-2.4,0-4.4,2.2-4.4,5s2,5,4.4,5,4.4-2.2,4.4-5-2-5-4.4-5Z"/>
    <path class="st0" d="M24,16.6c-3.2,0-5.9-3-5.9-6.6s2.6-6.6,5.9-6.6,5.9,3,5.9,6.6-2.6,6.6-5.9,6.6ZM24,4.9c-2.4,0-4.4,2.3-4.4,5.1s2,5.1,4.4,5.1,4.4-2.3,4.4-5.1-2-5.1-4.4-5.1Z"/>
  </g>
</svg>