<svg xmlns="http://www.w3.org/2000/svg" width="23" height="23" viewBox="0 0 23 23">
  <g id="グループ_262" data-name="グループ 262" transform="translate(-430 -10147)">
    <path id="パス_3621" data-name="パス 3621" d="M11.5,0A11.5,11.5,0,1,1,0,11.5,11.5,11.5,0,0,1,11.5,0Z" transform="translate(430 10147)" fill="#fff"/>
    <g id="グループ_261" data-name="グループ 261" transform="translate(437.765 10152.735)">
      <g id="グループ_260" data-name="グループ 260" transform="translate(0 0)">
        <path id="パス_3619" data-name="パス 3619" d="M.05,1.18C.355.445,1.608.381,2.438.1A1.3,1.3,0,0,1,3.049.009a1.371,1.371,0,0,1,.714.484c.552.581,1.143,1.4.759,2.107-.2.374-.627.567-.92.877A2.107,2.107,0,0,0,3.167,5.3,6.222,6.222,0,0,0,3.911,7.1c.39.718.933,1.533,1.75,1.539A8.6,8.6,0,0,0,6.677,8.45a1.9,1.9,0,0,1,1.931,1.988,2.719,2.719,0,0,1-1.885,2.293,1.538,1.538,0,0,1-1.3-.032,1.947,1.947,0,0,1-.5-.516A38.294,38.294,0,0,1,2.122,8.11C.884,5.934-.255,1.915.05,1.18" transform="translate(0 0)" fill="#313131"/>
      </g>
    </g>
  </g>
</svg>
