<?xml version="1.0" encoding="UTF-8"?>
<svg id="_レイヤー_1" data-name="レイヤー_1" xmlns="http://www.w3.org/2000/svg" version="1.1" viewBox="0 0 24.7 21.4">
  <!-- Generator: Adobe Illustrator 29.1.0, SVG Export Plug-In . SVG Version: 2.1.0 Build 142)  -->
  <defs>
    <style>
      .st0 {
        fill: #fff;
      }
    </style>
  </defs>
  <path class="st0" d="M18.6,12.6h-5.7v-7.2c0-.4.3-.8.8-.8s.8.3.8.8v5.7h4.2c.4,0,.8.3.8.8s-.3.7-.8.7Z"/>
  <path class="st0" d="M14,21.4c-2.9,0-5.5-1.1-7.6-3.1-.3-.3-.3-.8,0-1.1s.8-.3,1.1,0c1.7,1.7,4,2.7,6.5,2.7,5.1,0,9.2-4.1,9.2-9.2S19.1,1.5,14,1.5,4.8,5.6,4.8,10.7v1.1c0,.4-.3.8-.8.8s-.8-.3-.8-.8v-1.1C3.3,4.8,8.1,0,14,0s10.7,4.8,10.7,10.7-4.8,10.7-10.7,10.7Z"/>
  <path class="st0" d="M4.1,12.5c-.2,0-.4,0-.5-.2-.3-.3-.3-.8,0-1.1l3-3.3c.3-.3.8-.3,1.1,0,.3.3.3.8,0,1.1l-3,3.3c-.1.2-.4.2-.6.2Z"/>
  <path class="st0" d="M4.1,12.5c-.2,0-.4,0-.6-.2l-3-3.3c-.3-.3-.3-.8,0-1.1.3-.3.8-.2,1.1,0l3,3.3c.3.3.3.8,0,1.1-.1.1-.3.2-.5.2Z"/>
</svg>