<?xml version="1.0" encoding="utf-8"?>
<!-- Generator: Adobe Illustrator 15.0.0, SVG Export Plug-In . SVG Version: 6.00 Build 0)  -->
<!DOCTYPE svg PUBLIC "-//W3C//DTD SVG 1.1//EN" "http://www.w3.org/Graphics/SVG/1.1/DTD/svg11.dtd">
<svg version="1.1" id="レイヤー_1" xmlns="http://www.w3.org/2000/svg" xmlns:xlink="http://www.w3.org/1999/xlink" x="0px"
	 y="0px" width="10.252px" height="16.578px" viewBox="0 0 10.252 16.578" enable-background="new 0 0 10.252 16.578"
	 xml:space="preserve">
<g id="グループ_81" transform="translate(5.198 11.533) rotate(-90)">
	
		<rect id="長方形_628" x="-1.78" y="-1.73" transform="matrix(-2.547107e-006 -1 1 -2.547107e-006 0.001 -0.144)" fill="#74777C" width="3.417" height="3.315"/>
	
		<rect id="長方形_632" x="-5.095" y="-5.148" transform="matrix(-2.547107e-006 -1 1 -2.547107e-006 0.103 -6.876)" fill="#74777C" width="3.417" height="3.316"/>
	
		<rect id="長方形_629" x="1.536" y="1.687" transform="matrix(-2.547107e-006 -1 1 -2.547107e-006 -0.1008 6.5901)" fill="#74777C" width="3.417" height="3.317"/>
	
		<rect id="長方形_630" x="4.852" y="-1.73" transform="matrix(-2.547107e-006 -1 1 -2.547107e-006 6.6326 6.4876)" fill="#74777C" width="3.417" height="3.316"/>
	
		<rect id="長方形_631" x="8.167" y="-5.147" transform="matrix(-2.547107e-006 -1 1 -2.547107e-006 13.3646 6.3855)" fill="#74777C" width="3.417" height="3.316"/>
</g>
</svg>
