<?xml version="1.0" encoding="UTF-8"?>
<svg id="_レイヤー_1" xmlns="http://www.w3.org/2000/svg" version="1.1" viewBox="0 0 40 40">
  <!-- Generator: Adobe Illustrator 29.3.1, SVG Export Plug-In . SVG Version: 2.1.0 Build 151)  -->
  <defs>
    <style>
      .st0 {
        fill: #fff;
        stroke: #fff;
      }
    </style>
  </defs>
  <path class="st0" d="M7.9,7.7h0l5.2-1.4s1.5-.3,2.2,1.1c0,0-.2-.2-.2-.2l2.3,5.6h0c.3.8-.5,2.1-.5,2.1l-3.2,2.6.2.4c2,4.2,5.4,7.7,9.7,9.7l.4.2,2.6-3.2h0c.5-.6,1.4-.8,2.1-.5h0l5.6,2.3h0c.9.4,1.3,1.3,1.1,2.2h0l-1.4,5.2h0c-.2.8-1,1.4-1.8,1.4-11.7,0-21.6-7.8-24.7-18.5,0,0-2.4-7.8.4-9Z"/>
</svg>