<?xml version="1.0" encoding="UTF-8"?>
<svg id="_レイヤー_1" data-name="レイヤー_1" xmlns="http://www.w3.org/2000/svg" version="1.1" viewBox="0 0 40 40">
  <!-- Generator: Adobe Illustrator 29.3.1, SVG Export Plug-In . SVG Version: 2.1.0 Build 151)  -->
  <defs>
    <style>
      .st0 {
        fill: #fff;
        fill-rule: evenodd;
      }
    </style>
  </defs>
  <path class="st0" d="M40,7.7c-.3-3.4-4-7.7-9.5-7.7s-9.2,1.4-10.3,7.1c-.7,3.8,3,7.7,8.3,9.2.3,0,.5.4.3.7-.4.5-.9,1.1-1.5,1.6-.4.4-.1.8.3.6,2.1-.9,5.1-2.4,5.6-2.7,0,0,7.3-3.4,6.8-8.8Z"/>
  <path class="st0" d="M15.3,10H2c-1.1,0-2,.9-2,2v26c0,1.1.9,2,2,2h13.3c1.1,0,2-.9,2-2V12c0-1.1-.9-2-2-2ZM6.3,11h4.8c.3,0,.5.2.5.5s-.2.5-.5.5h-4.8c-.3,0-.5-.2-.5-.5s.2-.5.5-.5ZM15.4,36H1.9V13h13.5v23Z"/>
</svg>