<?xml version="1.0" encoding="UTF-8"?>
<svg id="_グループ_69" data-name="グループ_69" xmlns="http://www.w3.org/2000/svg" version="1.1" viewBox="0 0 22.7 17">
  <!-- Generator: Adobe Illustrator 29.3.1, SVG Export Plug-In . SVG Version: 2.1.0 Build 151)  -->
  <defs>
    <style>
      .st0 {
        fill: #0057a2;
      }
    </style>
  </defs>
  <path id="_パス_12" data-name="パス_12" class="st0" d="M22.3,5.6c.1,0,.3,0,.4,0,0,0,0,.1,0,.2v9.1c0,1.2-1,2.1-2.1,2.1H2.1c-1.2,0-2.1-1-2.1-2.1V5.8c0-.1.1-.3.3-.3,0,0,.1,0,.2,0,1,.8,2.3,1.8,6.8,5,.9.7,2.5,2.1,4.1,2.1,1.6,0,3.2-1.5,4.1-2.1,4.5-3.3,5.8-4.3,6.8-5M11.4,11.4c1,0,2.5-1.3,3.3-1.8,5.9-4.3,6.3-4.6,7.7-5.7.3-.2.4-.5.4-.8v-.8C22.7,1,21.8,0,20.6,0c0,0,0,0,0,0H2.1C1,0,0,1,0,2.1v.8c0,.3.2.6.4.8,1.4,1.1,1.8,1.4,7.7,5.7.7.5,2.2,1.9,3.3,1.8Z"/>
</svg>