<svg id="グループ_69" data-name="グループ 69" xmlns="http://www.w3.org/2000/svg" width="22.732" height="17.049" viewBox="0 0 22.732 17.049">
  <path id="パス_12" data-name="パス 12" d="M22.3,5.63a.267.267,0,0,1,.431.209v9.08A2.132,2.132,0,0,1,20.6,17.049H2.131A2.132,2.132,0,0,1,0,14.918V5.843a.266.266,0,0,1,.431-.209c.995.773,2.313,1.754,6.842,5.044.937.684,2.517,2.122,4.094,2.113,1.585.013,3.2-1.456,4.1-2.113C19.993,7.388,21.307,6.4,22.3,5.63M11.366,11.366c1.03.018,2.513-1.3,3.259-1.838,5.892-4.276,6.34-4.649,7.7-5.714a1.062,1.062,0,0,0,.408-.839V2.131A2.132,2.132,0,0,0,20.6,0H2.131A2.132,2.132,0,0,0,0,2.131v.844a1.069,1.069,0,0,0,.408.839c1.359,1.061,1.807,1.439,7.7,5.714C8.853,10.07,10.336,11.384,11.366,11.366Z" fill="#fff"/>
</svg>
