<svg xmlns="http://www.w3.org/2000/svg" width="12.052" height="11.866" viewBox="0 0 12.052 11.866">
  <g id="グループ_19289" data-name="グループ 19289" transform="translate(-545.481 -839.067)">
    <path id="パス_40" data-name="パス 40" d="M5.433,6.552a.5.5,0,0,1-.372-.166L-.372.334A.5.5,0,0,1-.334-.372a.5.5,0,0,1,.706.038L5.433,5.3,10.494-.334A.5.5,0,0,1,11.2-.372a.5.5,0,0,1,.038.706L5.805,6.386A.5.5,0,0,1,5.433,6.552Z" transform="translate(550.981 850.433) rotate(-90)" fill="#fff"/>
    <path id="パス_41" data-name="パス 41" d="M5.433,6.552a.5.5,0,0,1-.372-.166L-.372.334A.5.5,0,0,1-.334-.372a.5.5,0,0,1,.706.038L5.433,5.3,10.494-.334A.5.5,0,0,1,11.2-.372a.5.5,0,0,1,.038.706L5.805,6.386A.5.5,0,0,1,5.433,6.552Z" transform="translate(545.981 850.433) rotate(-90)" fill="#fff"/>
  </g>
</svg>
