<?xml version="1.0" encoding="UTF-8"?>
<svg id="_レイヤー_1" data-name="レイヤー_1" xmlns="http://www.w3.org/2000/svg" version="1.1" viewBox="0 0 21.1 21.1">
  <!-- Generator: Adobe Illustrator 29.1.0, SVG Export Plug-In . SVG Version: 2.1.0 Build 142)  -->
  <defs>
    <style>
      .st0 {
        fill: #fff;
      }
    </style>
  </defs>
  <path class="st0" d="M10.6,21.1c-1.8,0-3.5-.4-5.1-1.3l-4.5,1.3c-.3,0-.6,0-.8-.2-.2-.2-.3-.5-.2-.8l1.4-4.2C.5,14.2,0,12.4,0,10.5,0,4.7,4.7,0,10.5,0h0c2.8,0,5.5,1.1,7.5,3.1,2,2,3.1,4.6,3.1,7.5,0,5.8-4.7,10.6-10.5,10.6h0ZM5.6,18.1c.1,0,.3,0,.4.1,1.4.8,3,1.3,4.6,1.3h0c4.9,0,9-4,8.9-9,0-2.4-.9-4.6-2.6-6.3-1.7-1.7-3.9-2.6-6.3-2.6h0c-4.9,0-9,4-8.9,9,0,1.7.5,3.3,1.4,4.8.1.2.2.5,0,.7l-1,3.1,3.3-.9c0,0,.1,0,.2,0Z"/>
  <path class="st0" d="M13.1,8.4h-5.1c-.4,0-.8-.4-.8-.8s.4-.8.8-.8h5.1c.4,0,.8.4.8.8s-.4.8-.8.8Z"/>
  <path class="st0" d="M7.5,15.3c-.2,0-.4,0-.5-.2-.3-.3-.4-.8,0-1.1l6-7c.3-.3.8-.4,1.1,0,.3.3.4.8,0,1.1l-6,7c-.2.2-.4.3-.6.3Z"/>
  <path class="st0" d="M13.1,15.2h-5.1c-.4,0-.8-.4-.8-.8s.4-.8.8-.8h5.1c.4,0,.8.4.8.8s-.4.8-.8.8Z"/>
</svg>