<?xml version="1.0" encoding="UTF-8"?>
<svg id="_レイヤー_1" data-name="レイヤー_1" xmlns="http://www.w3.org/2000/svg" version="1.1" viewBox="0 0 40 40">
  <!-- Generator: Adobe Illustrator 29.3.1, SVG Export Plug-In . SVG Version: 2.1.0 Build 151)  -->
  <defs>
    <style>
      .st0 {
        fill: #fff;
      }
    </style>
  </defs>
  <path class="st0" d="M5.2,6c-1.9,0-3.5,1.6-3.5,3.5s.5,2.1,1.4,2.8l15.7,11.9c.8.6,2,.6,2.8,0l15.7-11.9c.9-.7,1.4-1.7,1.4-2.8,0-1.9-1.6-3.5-3.5-3.5H5.2ZM1.7,14.2v15.2c0,2.6,2.1,4.7,4.6,4.7h27.8c2.6,0,4.6-2.1,4.6-4.7v-15.2l-15.7,11.9c-1.6,1.2-3.9,1.2-5.5,0L1.7,14.2Z"/>
</svg>