<?xml version="1.0" encoding="UTF-8"?>
<svg id="_レイヤー_1" xmlns="http://www.w3.org/2000/svg" version="1.1" viewBox="0 0 169.9 36.5">
  <!-- Generator: Adobe Illustrator 29.3.1, SVG Export Plug-In . SVG Version: 2.1.0 Build 151)  -->
  <defs>
    <style>
      .st0 {
        fill: #383331;
      }

      .st1 {
        fill: #e16e62;
      }

      .st2 {
        fill: #f5c461;
      }

      .st3 {
        fill: #e6e4e0;
      }
    </style>
  </defs>
  <g>
    <path d="M74.5,32.5c-.2,1-1,2-2.7,2s-3-1.5-3-3.4.9-3.3,3-3.3,2.5.9,2.6,2h-1c-.2-.7-.6-1.3-1.6-1.3s-1.9,1.2-1.9,2.6.4,2.6,1.9,2.6,1.5-.6,1.7-1.3h1Z"/>
    <path d="M76.7,27.9v4.1c0,1,.4,1.7,1.6,1.7s1.6-.7,1.6-1.7v-4.1h1v4.2c0,1.4-.6,2.4-2.6,2.4s-2.6-.9-2.6-2.4v-4.2s1,0,1,0Z"/>
    <path d="M83.1,32.6c0,.8.7,1.2,1.6,1.2s1.4-.4,1.4-1.1-.4-1-1.6-1.3c-1.5-.4-2.1-.9-2.1-1.8s.9-1.7,2.3-1.7,2.3.8,2.3,1.8h-1c0-.6-.5-1-1.4-1s-1.2.4-1.2.9.4.8,1.5,1.1c1.8.5,2.2,1.1,2.2,2s-.8,1.9-2.5,1.9-2.4-.7-2.5-1.9h1,0Z"/>
    <path d="M89.7,28.7h-2.1v-.8h5.2v.8h-2.1v5.7h-1v-5.7Z"/>
    <path d="M99.5,31.1c0,1.9-1,3.4-3.1,3.4s-3-1.5-3-3.4,1-3.3,3.1-3.3,3,1.5,3,3.3ZM94.4,31.1c0,1.5.7,2.6,2,2.6s2-1.1,2-2.6-.6-2.6-2-2.6-2,1.1-2,2.5h0Z"/>
    <path d="M106.7,31.7v-3.1h0c-.3,1.2-1.4,4-2.1,5.8h-.9c-.5-1.6-1.6-4.6-1.9-5.9h0v5.8h-.9v-6.5h1.5c.7,1.8,1.6,4.4,1.9,5.3h0c0-.7,1.2-3.5,2-5.3h1.5v6.5h-1v-2.7h0Z"/>
    <path d="M112,27.9h2.6c1.4,0,2.1.6,2.1,1.6s-.6,1.2-1,1.3c.5.2,1.2.6,1.2,1.6s-1,1.9-2.5,1.9h-2.5v-6.5h.1ZM114.3,30.6c1,0,1.4-.3,1.4-1s-.4-1-1.3-1h-1.4v1.9h1.4,0ZM113,33.7h1.4c.9,0,1.5-.4,1.5-1.2s-.5-1.2-1.6-1.2h-1.3v2.4Z"/>
    <path d="M119.2,27.9v4.1c0,1,.4,1.7,1.6,1.7s1.6-.7,1.6-1.7v-4.1h1v4.2c0,1.4-.6,2.4-2.6,2.4s-2.6-.9-2.6-2.4v-4.2s1,0,1,0Z"/>
    <path d="M126.1,27.9v6.5h-1v-6.5s1,0,1,0Z"/>
    <path d="M127.8,27.9h1v5.7h3.4v.8h-4.4s0-6.5,0-6.5Z"/>
    <path d="M133.2,27.9h2.4c1.9,0,3.3,1.1,3.3,3.1s-1.2,3.4-3.4,3.4h-2.3v-6.5ZM134.2,33.7h1.2c1.6,0,2.4-1,2.4-2.6s-.9-2.4-2.3-2.4h-1.2v5h0Z"/>
    <path d="M144.4,31.4h-3.2v2.3h3.6v.8h-4.5v-6.5h4.4v.8h-3.4v1.9h3.2v.8h-.1Z"/>
    <path d="M146.9,31.5v2.9h-1v-6.5h2.6c1.3,0,2.2.6,2.2,1.7s-.6,1.3-1.2,1.5c.7.2,1.1.8,1.1,1.6h0v1.7h-1c0-.3-.1-.8-.1-1.5h0c0-1-.4-1.4-1.5-1.4h-1.2,0ZM146.9,30.8h1.3c.9,0,1.5-.2,1.5-1.1s-.5-1-1.3-1h-1.5v2.1Z"/>
  </g>
  <g>
    <path d="M54.1,7.3h6l4.5,14.4h-4.9l-.8-3h-3.5l-.8,3h-5s4.5-14.4,4.5-14.4ZM58.4,16.7l-1.3-5.6-1.3,5.6h2.6Z"/>
    <path d="M67.4,9.6h-3.6v-2.4h12.5v2.4h-3.6v12h-5.3v-12Z"/>
    <path d="M82.3,9.6h-3.6v-2.4h12.5v2.4h-3.6v12h-5.3v-12Z"/>
    <path d="M95.5,7.3h6l4.5,14.4h-4.9l-.8-3h-3.5l-.8,3h-5s4.5-14.4,4.5-14.4ZM99.8,16.7l-1.3-5.6-1.3,5.6h2.6Z"/>
    <path d="M107.5,17.1v-5.2c0-3,1.7-4.8,7.2-4.8s6.9,1.7,6.9,4.1v1.2h-5.2v-1.4c0-.8,0-1.7-1.7-1.7s-1.8.9-1.8,1.8v6.8c0,1,.3,1.8,1.8,1.8s1.7-.9,1.7-1.8v-1.5h5.2v1.2c0,2.4-1.5,4.3-6.9,4.3s-7.2-1.9-7.2-4.8Z"/>
    <path d="M124.5,7.3h5.3v5.9l4-5.9h5.2l-4.4,6.5,4.6,7.9h-5.4l-3.5-6.3-.6.6v5.8h-5.3V7.3h0Z"/>
    <path d="M141.2,7.3h10.8v2.2h-5.5v3.6h4.2v2.2h-4.2v4.3h5.5v2.1h-10.8V7.3Z"/>
    <path d="M155,7.3h6.6c4.8,0,7.9.8,7.9,3.8s-.6,2.9-2.9,3.6l3.3,6.9h-5.5l-2.6-6.4h-1.5v6.4h-5.3V7.3ZM161.8,13.4c2.2,0,2.9-.7,2.9-2s-.6-1.9-2.6-1.9h-1.7v4h1.5,0Z"/>
  </g>
  <g>
    <path class="st0" d="M42.2,31.2s0,0,0,0L24.2.2c0-.1-.2-.2-.4-.2h-5.5c-.1,0-.3,0-.4.2L.1,31.2c0,.1,0,.3,0,.4l2.7,4.8h0s0,0,.1.1h36c.1,0,.3,0,.4-.2l2.7-4.6s0,0,0,0,0-.1,0-.2,0-.1,0-.2h.1ZM23.6.8l17.4,30.2H12.1l2.3-3.9h19.1c.1,0,.3,0,.4-.2,0-.1,0-.3,0-.4L19.1.8h4.5ZM14.9,26.2l6.2-10.8,6.2,10.8h-12.4ZM3.2,35.4l-2.3-3.9L18.4,1.2l14.4,25h-4.5l-9.5-16.6c0-.1-.2-.2-.4-.2h0c-.1,0-.3,0-.4.2L3.2,35.4ZM38.8,35.7H3.9l14.5-25.1,2.3,3.9-9.6,16.6c0,0,0,.2,0,.3h0c0,0,0,.1,0,.2h0s0,0,0,0h29.7l-2.3,3.9h.1Z"/>
    <path class="st2" d="M23.6.8l17.4,30.2H12.1l2.3-3.9h19.1c.1,0,.3,0,.4-.2,0-.1,0-.3,0-.4L19.1.8h4.5Z"/>
    <path class="st1" d="M18.4,9.4c-.1,0-.3,0-.4.2L3.2,35.4l-2.3-3.9L18.4,1.2l14.4,25h-4.5l-9.5-16.6c0-.1-.2-.2-.4-.2h0"/>
    <path class="st3" d="M38.8,35.7H3.9l14.5-25.1,2.3,3.9-9.6,16.6c0,0,0,.2,0,.3h0c0,0,0,.1,0,.2h0s0,0,0,0h29.7l-2.3,3.9h.1Z"/>
  </g>
</svg>