<?xml version="1.0" encoding="UTF-8"?>
<svg id="_レイヤー_1" data-name="レイヤー_1" xmlns="http://www.w3.org/2000/svg" version="1.1" viewBox="0 0 94 107">
  <!-- Generator: Adobe Illustrator 29.3.1, SVG Export Plug-In . SVG Version: 2.1.0 Build 151)  -->
  <defs>
    <style>
      .st0 {
        fill: #fff;
      }
    </style>
  </defs>
  <g>
    <path class="st0" d="M21,105.5c-.2.8-.7,1.5-2,1.5s-2.2-1.1-2.2-2.5.7-2.4,2.2-2.4,1.8.7,1.9,1.5h-.7c-.1-.5-.4-.9-1.2-.9s-1.4.9-1.4,1.9.3,1.9,1.4,1.9,1.1-.4,1.2-.9h.7Z"/>
    <path class="st0" d="M22.6,102.1v3.1c0,.7.3,1.3,1.2,1.3s1.2-.5,1.2-1.3v-3h.8v3.1c0,1-.5,1.8-2,1.8s-1.9-.7-1.9-1.8v-3.1h.7Z"/>
    <path class="st0" d="M27.3,105.6c0,.6.5.9,1.2.9s1-.3,1-.8-.3-.7-1.2-1c-1.1-.3-1.6-.7-1.6-1.3s.7-1.3,1.7-1.3,1.7.6,1.7,1.3h-.7c0-.5-.4-.8-1-.8s-.9.3-.9.7.3.6,1.1.8c1.3.4,1.6.8,1.6,1.5s-.6,1.4-1.8,1.4-1.8-.5-1.9-1.4h.7Z"/>
    <path class="st0" d="M32.2,102.7h-1.5v-.6h3.8v.6h-1.5v4.2h-.7v-4.2Z"/>
    <path class="st0" d="M39.4,104.5c0,1.4-.7,2.5-2.3,2.5s-2.2-1.1-2.2-2.5.7-2.4,2.3-2.4,2.2,1.1,2.2,2.4ZM35.7,104.5c0,1.1.5,1.9,1.5,1.9s1.5-.8,1.5-1.9-.4-1.9-1.5-1.9-1.5.8-1.5,1.9Z"/>
    <path class="st0" d="M44.7,104.9c0-.9,0-1.8,0-2.3h0c-.2.9-1,2.9-1.5,4.3h-.7c-.4-1.1-1.2-3.4-1.4-4.3h0c0,.6,0,1.6,0,2.4v1.9h-.7v-4.8h1.1c.5,1.4,1.2,3.3,1.4,3.9h0c.1-.5.9-2.6,1.5-3.9h1.1v4.8h-.7v-2Z"/>
    <path class="st0" d="M48.6,102.1h1.9c1,0,1.6.5,1.6,1.2s-.4.9-.7,1c.4.1.9.4.9,1.2s-.7,1.4-1.8,1.4h-1.8v-4.8ZM50.4,104.1c.7,0,1-.3,1-.7s-.3-.7-1-.7h-1.1v1.4h1ZM49.3,106.4h1c.6,0,1.1-.3,1.1-.9s-.4-.9-1.2-.9h-1v1.8Z"/>
    <path class="st0" d="M53.9,102.1v3.1c0,.7.3,1.3,1.2,1.3s1.2-.5,1.2-1.3v-3h.8v3.1c0,1-.5,1.8-2,1.8s-1.9-.7-1.9-1.8v-3.1h.7Z"/>
    <path class="st0" d="M59,102.1v4.8h-.7v-4.8h.7Z"/>
    <path class="st0" d="M60.3,102.1h.7v4.2h2.5v.6h-3.3v-4.8Z"/>
    <path class="st0" d="M64.2,102.1h1.8c1.4,0,2.4.8,2.4,2.3s-.9,2.5-2.5,2.5h-1.7v-4.8ZM65,106.4h.9c1.2,0,1.7-.7,1.7-1.9s-.7-1.8-1.7-1.8h-.9v3.7Z"/>
    <path class="st0" d="M72.5,104.7h-2.4v1.7h2.6v.6h-3.3v-4.8h3.2v.6h-2.5v1.4h2.4v.6Z"/>
    <path class="st0" d="M74.3,104.8v2.1h-.7v-4.8h1.9c1,0,1.6.4,1.6,1.2s-.4,1-.9,1.1c.6.2.8.6.8,1.2h0c0,.5,0,.9,0,1.2h-.7c0-.2,0-.6,0-1.1h0c0-.8-.3-1-1.1-1h-.9ZM74.3,104.2h.9c.7,0,1.1-.2,1.1-.8s-.4-.7-1-.7h-1.1v1.6Z"/>
  </g>
  <g>
    <path class="st0" d="M6,86.9h4.4l3.3,10.6h-3.6l-.6-2.2h-2.6l-.6,2.2h-3.7l3.3-10.6ZM9.2,93.9l-.9-4.1-.9,4.1h1.9Z"/>
    <path class="st0" d="M15.8,88.7h-2.7v-1.7h9.2v1.7h-2.6v8.8h-3.9v-8.8Z"/>
    <path class="st0" d="M26.8,88.7h-2.7v-1.7h9.2v1.7h-2.6v8.8h-3.9v-8.8Z"/>
    <path class="st0" d="M36.5,86.9h4.4l3.3,10.6h-3.6l-.6-2.2h-2.6l-.6,2.2h-3.7l3.3-10.6ZM39.7,93.9l-.9-4.1-.9,4.1h1.9Z"/>
    <path class="st0" d="M45.3,94.1v-3.8c0-2.2,1.3-3.5,5.3-3.5s5.1,1.3,5.1,3.1v.9h-3.8v-1.1c0-.6,0-1.3-1.3-1.3s-1.3.7-1.3,1.3v5c0,.7.2,1.3,1.3,1.3s1.3-.7,1.3-1.3v-1.1h3.8v.9c0,1.8-1.1,3.1-5.1,3.1s-5.3-1.4-5.3-3.5Z"/>
    <path class="st0" d="M57.8,86.9h3.9v4.3l3-4.3h3.8l-3.3,4.8,3.4,5.8h-4l-2.5-4.7-.4.4v4.3h-3.9v-10.6Z"/>
    <path class="st0" d="M70.2,86.9h7.9v1.6h-4v2.6h3.1v1.6h-3.1v3.2h4.1v1.6h-8v-10.6Z"/>
    <path class="st0" d="M80.3,86.9h4.9c3.5,0,5.9.6,5.9,2.8s-.4,2.2-2.2,2.7l2.4,5.1h-4l-1.9-4.7h-1.1v4.7h-3.9v-10.6ZM85.3,91.4c1.6,0,2.1-.5,2.1-1.5s-.5-1.4-1.9-1.4h-1.3v2.9h1.1Z"/>
  </g>
  <path class="st0" d="M93.2,68.6c0,0,0-.1-.1-.2L53.8.4c-.2-.3-.5-.4-.8-.4h-12.1c-.3,0-.6.2-.8.4L.8,68.6c-.2.3-.2.6,0,.9l6,10.4s0,0,0,0c0,.1.2.2.3.3,0,0,0,0,0,0,0,0,0,0,.1,0,0,0,0,0,0,0,0,0,.2,0,.2,0h78.7c.3,0,.6-.2.8-.5l5.9-10.2c0,0,.1-.1.1-.2,0-.1.1-.3.1-.5,0-.2,0-.3-.1-.5ZM52.5,1.8l38.3,66.3H27.3l5-8.6h42c.3,0,.6-.2.8-.4.2-.3.2-.6,0-.9L42.5,1.8h10ZM33.3,57.7l13.7-23.7,13.7,23.7h-27.3ZM7.6,77.7l-5-8.6L41,2.7l31.7,55h-10l-21-36.4c-.2-.3-.5-.4-.8-.4h0c-.3,0-.6.2-.8.4L7.6,77.7ZM85.8,78.6H9.2c0,0,31.8-55,31.8-55l5,8.7-21,36.4c-.1.2-.2.5,0,.7,0,0,0,0,0,0,0,0,0,.1,0,.2,0,0,0,.1.1.2,0,0,0,0,0,0,0,0,0,0,.1.1,0,0,0,0,0,0,0,0,0,0,.1,0,0,0,0,0,.1,0,0,0,0,0,.1,0h65.1c0,0-5,8.6-5,8.6Z"/>
</svg>